# AST/ASF file generated using VICON BodyLanguage
# -----------------------------------------------
:version 1.10
:name VICON
:units
  mass 1.0
  length 0.45
  angle deg
:documentation
   .ast/.asf automatically generated from VICON data using
   VICON BodyBuilder and BodyLanguage model FoxedUp or BRILLIANT.MOD
:root
   order TX TY TZ RX RY RZ
   axis XYZ
   position 0 0 0  
   orientation 0 0 0 
:bonedata
  begin
     id 1 
     name lhipjoint
     direction 0.604623 -0.733026 0.311616 
     length 2.56391 
     axis 0 0 0  XYZ
  end
  begin
     id 2 
     name lfemur
     direction 0.34202 -0.939693 0  
     length 7.75596  
     axis 0 0 20  XYZ
    dof rx ry rz
    limits (-160.0 20.0)
           (-70.0 70.0)
           (-60.0 70.0)
  end
  begin
     id 3 
     name ltibia
     direction 0.34202 -0.939693 0   
     length 7.63697   
     axis 0 0 20   XYZ
    dof rx
    limits (-10.0 170.0)
  end
  begin
     id 4 
     name lfoot
     direction 0.048038 -0.131983 0.990087   
     length 1.94388   
     axis -90 7.62852e-016 20   XYZ
    dof rx rz
    limits (-45.0 90.0)
           (-70.0 20.0)
  end
  begin
     id 5 
     name ltoes
     direction 1.53565e-011 -4.21929e-011 1   
     length 0.984801   
     axis -90 7.62852e-016 20   XYZ
    dof rx
    limits (-90.0 20.0)
  end
  begin
     id 6 
     name rhipjoint
     direction -0.609162 -0.729836 0.31026   
     length 2.57511  
     axis 0 0 0  XYZ 
  end
  begin
     id 7 
     name rfemur
     direction -0.34202 -0.939693 0   
     length 7.60772   
     axis 0 0 -20   XYZ
    dof rx ry rz
    limits (-160.0 20.0)
           (-70.0 70.0)
           (-70.0 60.0)
  end
  begin
     id 8 
     name rtibia
     direction -0.34202 -0.939693 0   
     length 7.68497   
     axis 0 0 -20   XYZ
    dof rx
    limits (-10.0 170.0)
 end
 begin
     id 9 
     name rfoot
     direction -0.0969806 -0.266452 0.958957   
     length 2.01398  
     axis -90 -7.62852e-016 -20   XYZ
    dof rx rz
    limits (-45.0 90.0)
           (-20.0 70.0)
  end
  begin
     id 10 
     name rtoes
     direction -1.53552e-011 -4.21869e-011 1   
     length 1.00896   
     axis -90 -7.62852e-016 -20   XYZ
    dof rx
    limits (-90.0 20.0)
  end
  begin
     id 11 
     name lowerback
     direction 0.0305179 0.993923 -0.10576   
     length 2.09077   
     axis 0 0 0   XYZ
    dof rx ry rz
    limits (-20.0 45.0)
           (-30.0 30.0)
           (-30.0 30.0)
  end
  begin
     id 12 
     name upperback
     direction -0.0137909 0.999867 0.00873764   
     length 2.08918   
     axis 0 0 0   XYZ
    dof rx ry rz
    limits (-20.0 45.0)
           (-30.0 30.0)
           (-30.0 30.0)
  end
  begin
     id 13 
     name thorax
     direction -0.0278536 0.997917 0.0581839   
     length 2.11939   
     axis 0 0 0   XYZ
    dof rx ry rz
    limits (-20.0 45.0)
           (-30.0 30.0)
           (-30.0 30.0)
  end
  begin
     id 14 
     name lowerneck
     direction 0.0138689 0.999837 -0.0116016   
     length 1.74353   
     axis 0 0 0   XYZ
    dof rx ry rz
    limits (-20.0 45.0)
           (-30.0 30.0)
           (-30.0 30.0)
  end
  begin
     id 15 
     name upperneck
     direction -0.00992078 0.999667 0.0238149   
     length 1.71734   
     axis 0 0 0   XYZ
    dof rx ry rz
    limits (-20.0 45.0)
           (-30.0 30.0)
           (-30.0 30.0)
  end
  begin
     id 16
     name head
     direction -0.00530555 0.999941 0.00944937  
     length 1.78249  
     axis 0 0 0   XYZ
    dof rx ry rz
    limits (-20.0 45.0)
           (-30.0 30.0)
           (-30.0 30.0)
  end
  begin
     id 17 
     name lclavicle
     direction 0.929165 0.366864 0.0454227  
     length 3.65686  
     axis 0 0 0   XYZ
    dof ry rz
    limits (-20.0 10.0)
           (0.0 20.0)
  end
  begin
     id 18 
     name lhumerus
     direction 1 -4.4897e-011 3.05413e-018   
     length 5.15218   
     axis -180 -30 -90   XYZ
    dof rx ry rz
    limits (-60.0 90.0)
           (-90.0 90.0)
           (-90.0 90.0)
  end
  begin
     id 19
     name lradius
     direction 1 -4.48963e-011 5.40022e-027   
     length 3.49459   
     axis -180 -30 -90   XYZ
    dof rx
    limits (-10.0 170.0)
  end
  begin
     id 20
     name lwrist
     direction 1 -4.48966e-011 9.79369e-027   
     length 1.7473   
     axis -4.67603e-015 90 90   XYZ
    dof ry
    limits (-180.0 0.0)
 end
  begin
     id 21 
     name lhand
     direction 1 -4.48996e-011 1.9593e-026   
     length 0.512466   
     axis -1.24987e-014 90 90   XYZ
    dof rx rz
    limits (-90.0 90.0)
           (-45.0 45.0)
  end
  begin
     id 22 
     name lfingers
     direction 1 -4.48931e-011 3.91616e-026   
     length 0.413163   
     axis -2.49979e-014 90 90   XYZ
    dof rx
    limits (0.0 90.0)
  end
  begin
     id 23
     name lthumb
     direction 0.707107 -6.34959e-011 0.707107   
     length 0.593222   
     axis -90 45 5.69224e-014   XYZ
    dof rx rz
    limits (-45.0 45.0)
           (-45.0 45.0)
  end
  begin
     id 24 
     name rclavicle
     direction -0.951469 0.307727 0.00346571   
     length 3.42864  
     axis 0 0 0   XYZ 
    dof ry rz
    limits (-10.0 20.0)
           (-20.0 0.0)
  end
  begin
     id 25 
     name rhumerus
     direction -1 -4.48967e-011 2.58643e-027  
     length 5.44344   
     axis -180 30 90   XYZ
    dof rx ry rz
    limits (-90.0 60.0)
           (-90.0 90.0)
           (-90.0 90.0)
  end
  begin
     id 26 
     name rradius
     direction -1 -4.48973e-011 4.26485e-028   
     length 3.58403   
     axis -180 30 90   XYZ
    dof rx
    limits (-10.0 170.0)
  end
  begin
     id 27 
     name rwrist
     direction -1 -4.48962e-011 9.79331e-027   
     length 1.79202   
     axis -4.67603e-015 -90 -90   XYZ
    dof ry
    limits (-180.0 0.0)
  end
  begin
     id 28
     name rhand
     direction -1 -4.48975e-011 1.95891e-026   
     length 0.34249   
     axis -1.24987e-014 -90 -90   XYZ
    dof rx rz
    limits (-90.0 90.0)
           (-45.0 45.0)
  end
  begin
     id 29
     name rfingers
     direction -1 -4.48893e-011 3.9147e-026   
     length 0.276124   
     axis -2.49979e-014 -90 -90   XYZ
    dof rx
    limits (0.0 90.0)
  end
  begin
     id 30
     name rthumb
     direction -0.707107 -6.34898e-011 0.707107   
     length 0.39646   
     axis -90 -45 -5.69224e-014   XYZ
    dof rx rz
    limits (-45.0 45.0)
           (-45.0 45.0)
  end
:hierarchy
  begin
    root lhipjoint rhipjoint lowerback
    lhipjoint lfemur
    lfemur ltibia
    ltibia lfoot
    lfoot ltoes
    rhipjoint rfemur
    rfemur rtibia
    rtibia rfoot
    rfoot rtoes
    lowerback upperback
    upperback thorax
    thorax lowerneck lclavicle rclavicle
    lowerneck upperneck
    upperneck head
    lclavicle lhumerus
    lhumerus lradius
    lradius lwrist
    lwrist lhand lthumb
    lhand lfingers
    rclavicle rhumerus
    rhumerus rradius
    rradius rwrist
    rwrist rhand rthumb
    rhand rfingers
  end

#!OML:ASF H:\charlestonDancing\Project 1\Capture day 1\Session 1\femaleDancer.ASF
:FULLY-SPECIFIED
:DEGREES
124
root -6.72216 17.7907 -6.05923 -353.036 -25.124 -357.409
lowerback 14.0797 -0.03623 4.24646
upperback 0.715569 0.782373 2.35965
thorax -7.12882 0.271875 -0.0487343
lowerneck 0.410752 -6.45886 -7.10118
upperneck 1.35241 -8.79692 10.0691
head 1.21982 -4.3933 4.46278
rclavicle 1.63003e-014 -2.70347e-014
rhumerus 20.1433 36.4986 -33.9162
rradius 85.9025
rwrist -17.8422
rhand -7.22584 -22.0015
rfingers 7.12502
rthumb 18.6536 -51.1271
lclavicle 1.63003e-014 -2.70347e-014
lhumerus -9.32563 -22.1716 51.4012
lradius 89.2992
lwrist 32.8196
lhand -7.24548 23.221
lfingers 7.12502
lthumb 18.6347 52.3484
rfemur -27.1838 -10.2893 25.2365
rtibia 48.422
rfoot -20.8334 -17.8807
rtoes -12.483
lfemur -28.4634 4.17772 -16.4217
ltibia 66.3279
lfoot 17.7872 0.861545
ltoes -17.3876
125
root -6.63702 17.7475 -5.9603 -353.424 -26.409 -357.509
lowerback 14.1756 -0.0187063 4.30719
upperback 0.890688 0.822229 2.53664
thorax -6.99548 0.294326 0.0963401
lowerneck 0.896672 -6.60829 -7.27401
upperneck 0.623883 -8.97433 10.0797
head 0.920901 -4.50196 4.52472
rclavicle -4.81059e-014 -1.59028e-015
rhumerus 20.6483 36.0493 -32.8063
rradius 86.1651
rwrist -18.4219
rhand -6.80985 -22.1487
rfingers 7.12502
rthumb 19.0537 -51.2354
lclavicle -4.81059e-014 -1.59028e-015
lhumerus -8.94908 -22.5975 51.6666
lradius 89.2632
lwrist 32.6966
lhand -6.13452 22.1829
lfingers 7.12502
lthumb 19.703 51.2044
rfemur -25.9404 -7.63286 24.018
rtibia 48.0291
rfoot -20.6776 -17.0854
rtoes -16.9993
lfemur -29.9452 2.80744 -15.6127
ltibia 68.7961
lfoot 20.6447 -2.36194
ltoes -9.6351
126
root -6.52689 17.6483 -5.861 -354.314 -27.6688 -357.431
lowerback 14.8127 -0.0639082 4.30034
upperback 1.14197 0.795477 2.67938
thorax -7.08443 0.282236 0.255699
lowerneck 1.1654 -6.82736 -7.37541
upperneck 0.164024 -9.25071 9.92055
head 0.745609 -4.65053 4.49839
rclavicle 1.11319e-014 1.59028e-014
rhumerus 21.1912 35.6787 -31.8159
rradius 86.1841
rwrist -18.851
rhand -6.54231 -22.1604
rfingers 7.12502
rthumb 19.311 -51.2216
lclavicle 1.11319e-014 1.59028e-014
lhumerus -8.84946 -22.905 52.2118
lradius 89.3364
lwrist 32.6136
lhand -5.78997 22.3176
lfingers 7.12502
lthumb 20.0342 51.3047
rfemur -24.5981 -5.32639 22.5292
rtibia 48.1605
rfoot -21.5471 -15.9117
rtoes -20.5747
lfemur -30.8233 0.710707 -14.8789
ltibia 70.83
lfoot 17.0289 -5.80894
ltoes -15.7359
127
root -6.39502 17.512 -5.76511 -355.256 -29.0312 -357.605
lowerback 15.951 -0.171358 4.48753
upperback 1.34902 0.759673 2.88954
thorax -7.4966 0.254246 0.382435
lowerneck 1.41052 -6.99058 -7.49407
upperneck -0.316286 -9.454 9.86722
head 0.568193 -4.76163 4.5168
rclavicle 2.14687e-014 -3.65764e-014
rhumerus 21.6892 35.5252 -31.1062
rradius 86.0188
rwrist -19.1079
rhand -6.7299 -22.3879
rfingers 7.12502
rthumb 19.1306 -51.467
lclavicle 2.14687e-014 -3.65764e-014
lhumerus -9.2368 -23.0189 53.1016
lradius 89.5667
lwrist 32.4414
lhand -5.56008 22.5958
lfingers 7.12502
lthumb 20.2552 51.5596
rfemur -23.6278 -3.83639 21.5186
rtibia 48.8824
rfoot -22.2036 -15.4972
rtoes -27.7867
lfemur -31.532 -1.59643 -13.926
ltibia 72.0421
lfoot 11.1585 -9.32665
ltoes -23.8453
128
root -6.24885 17.373 -5.6779 -355.392 -30.6657 -359.194
lowerback 17.436 -0.339071 5.82294
upperback 1.49413 0.919214 3.38598
thorax -8.14835 0.277678 0.130821
lowerneck 1.91997 -7.13706 -7.9588
upperneck -1.26504 -9.62988 10.8278
head 0.239391 -4.8732 4.47835
rclavicle 8.62725e-014 -2.70347e-014
rhumerus 21.9396 35.3411 -30.8181
rradius 85.7926
rwrist -19.3732
rhand -7.02515 -22.863
rfingers 7.12502
rthumb 18.8466 -51.97
lclavicle 8.62725e-014 -2.70347e-014
lhumerus -9.95039 -22.8777 54.2712
lradius 89.7503
lwrist 31.9291
lhand -5.44054 22.4861
lfingers 7.12502
lthumb 20.3701 51.4377
rfemur -23.2059 -2.80458 22.2701
rtibia 49.7985
rfoot -23.8987 -14.5937
rtoes -25.6368
lfemur -32.4958 -3.98357 -11.2723
ltibia 72.6831
lfoot 6.33342 -10.6966
ltoes -16.7155
129
root -6.09159 17.2555 -5.56805 -356.37 -33.0672 -359.672
lowerback 19.1972 -0.301915 6.21882
upperback 1.89508 1.17015 3.483
thorax -8.66412 0.371099 -0.0502575
lowerneck 1.5287 -7.34881 -7.86992
upperneck -1.37462 -9.88775 10.3936
head 0.297345 -4.99253 4.79462
rclavicle -6.36111e-015 -4.92986e-014
rhumerus 22.104 34.8607 -30.9517
rradius 85.502
rwrist -19.6268
rhand -6.96806 -23.1055
rfingers 7.12502
rthumb 18.9015 -52.2072
lclavicle -6.36111e-015 -4.92986e-014
lhumerus -10.6941 -22.492 55.4273
lradius 89.8926
lwrist 31.2698
lhand -5.51627 22.1143
lfingers 7.12502
lthumb 20.2973 51.0737
rfemur -22.6523 -1.47384 21.9016
rtibia 50.94
rfoot -24.449 -13.3456
rtoes -22.4177
lfemur -32.3725 -6.39976 -9.88404
ltibia 72.2935
lfoot 0.569035 -11.971
ltoes -13.436
130
root -5.92826 17.1525 -5.43984 -355.012 -35.4137 -362.718
lowerback 20.1178 -0.518151 8.78639
upperback 2.13411 1.54293 4.02474
thorax -8.83601 0.451872 -1.00018
lowerneck 0.858758 -7.57323 -7.30975
upperneck -1.28045 -10.1475 10.0339
head 0.419851 -5.10546 4.51454
rclavicle -1.04163e-013 5.88403e-014
rhumerus 22.3699 34.3194 -31.4133
rradius 85.129
rwrist -20.0686
rhand -6.80956 -23.2631
rfingers 7.12502
rthumb 19.054 -52.3498
lclavicle -1.04163e-013 5.88403e-014
lhumerus -11.4641 -22.1017 56.4388
lradius 90.0613
lwrist 30.7471
lhand -5.64247 21.8255
lfingers 7.12502
lthumb 20.176 50.7977
rfemur -22.8204 0.312179 23.821
rtibia 51.8721
rfoot -23.917 -13.9634
rtoes -28.6194
lfemur -33.1201 -8.71103 -5.89878
ltibia 71.2385
lfoot -4.12181 -14.7261
ltoes -9.12542
131
root -5.76888 17.0743 -5.30068 -354.217 -37.8637 -363.87
lowerback 20.6652 -0.568189 9.59726
upperback 2.24259 1.71291 4.13717
thorax -8.97948 0.494312 -1.37783
lowerneck 0.755184 -7.8476 -7.18292
upperneck -1.64017 -10.4889 10.283
head 0.362624 -5.28015 4.57095
rclavicle 4.33351e-014 -3.97569e-014
rhumerus 22.4837 34.004 -32.2351
rradius 84.7171
rwrist -20.7073
rhand -6.39409 -23.3739
rfingers 7.12502
rthumb 19.4535 -52.4207
lclavicle 4.33351e-014 -3.97569e-014
lhumerus -12.2235 -21.8869 57.3774
lradius 90.0945
lwrist 30.4695
lhand -5.67169 21.7657
lfingers 7.12502
lthumb 20.1479 50.7409
rfemur -23.4523 1.84427 23.85
rtibia 52.7655
rfoot -23.3346 -11.5931
rtoes -25.437
lfemur -33.9497 -11.639 -3.59201
ltibia 69.1294
lfoot -9.10615 -17.7108
ltoes -15.7358
132
root -5.6186 17.0213 -5.15082 -353.612 -40.3295 -364.022
lowerback 20.7683 -0.527215 9.42125
upperback 2.25815 1.72901 4.11447
thorax -9.02079 0.503303 -1.30924
lowerneck 0.888082 -8.20526 -7.916
upperneck -2.35266 -10.9362 11.7686
head 0.267192 -5.52283 4.69281
rclavicle -3.06128e-014 -2.54444e-014
rhumerus 22.5814 33.8016 -33.0757
rradius 84.2762
rwrist -20.9934
rhand -6.17513 -23.4367
rfingers 7.12502
rthumb 19.664 -52.4621
lclavicle -3.06128e-014 -2.54444e-014
lhumerus -12.8508 -21.676 58.3814
lradius 89.8146
lwrist 30.2676
lhand -5.48959 22.0144
lfingers 7.12502
lthumb 20.323 50.9711
rfemur -24.4318 3.2095 22.9081
rtibia 53.3582
rfoot -24.1469 -12.77
rtoes -33.1139
lfemur -35.0042 -15.0439 -1.86385
ltibia 66.3333
lfoot -10.8662 -22.4641
ltoes -16.4865
133
root -5.47451 16.9829 -4.98758 -353.081 -42.7402 -363.894
lowerback 20.6407 -0.48142 8.91825
upperback 2.25216 1.65434 4.11281
thorax -8.97865 0.48595 -1.00857
lowerneck 2.00274 -8.38609 -9.7238
upperneck -4.37649 -11.1202 14.5293
head -0.211062 -5.70569 5.90263
rclavicle -8.22969e-014 6.36111e-015
rhumerus 22.6799 33.6501 -33.7303
rradius 83.893
rwrist -20.7756
rhand -7.51321 -23.9537
rfingers 7.12502
rthumb 18.3772 -53.1056
lclavicle -8.22969e-014 6.36111e-015
lhumerus -13.3233 -21.4921 59.5005
lradius 89.2023
lwrist 29.9832
lhand -5.04513 22.3083
lfingers 7.12502
lthumb 20.7501 51.2189
rfemur -25.5198 4.51527 21.6489
rtibia 53.8072
rfoot -24.385 -11.0877
rtoes -30.7904
lfemur -36.0395 -19.1401 0.0803211
ltibia 63.0837
lfoot -4.95879 -28.8955
ltoes 2.27588
134
root -5.32876 16.9619 -4.80802 -352.559 -45.0275 -363.88
lowerback 20.4793 -0.512511 8.59644
upperback 2.24579 1.51928 4.14116
thorax -8.91768 0.434112 -0.759414
lowerneck 1.95296 -9.03734 -9.09805
upperneck -4.63552 -11.9594 14.158
head -0.239259 -6.13083 5.66789
rclavicle 3.97569e-015 -1.59028e-014
rhumerus 22.5535 33.5327 -34.289
rradius 83.6244
rwrist -20.3892
rhand -8.49212 -24.5993
rfingers 7.12502
rthumb 17.4353 -53.8374
lclavicle 3.97569e-015 -1.59028e-014
lhumerus -13.6185 -21.5483 60.661
lradius 88.3482
lwrist 29.819
lhand -4.64876 22.5219
lfingers 7.12502
lthumb 21.1309 51.3904
rfemur -26.4303 5.76572 20.4327
rtibia 54.0363
rfoot -24.13 -11.8159
rtoes -37.4181
lfemur -37.25 -23.4824 2.16794
ltibia 59.8972
lfoot -3.96768 -32.8883
ltoes 1.27017
